<?xml version="1.0" encoding="UTF-8" standalone="no"?>
<svg
   xmlns:dc="http://purl.org/dc/elements/1.1/"
   xmlns:cc="http://creativecommons.org/ns#"
   xmlns:rdf="http://www.w3.org/1999/02/22-rdf-syntax-ns#"
   xmlns:svg="http://www.w3.org/2000/svg"
   xmlns="http://www.w3.org/2000/svg"
   xmlns:sodipodi="http://sodipodi.sourceforge.net/DTD/sodipodi-0.dtd"
   xmlns:inkscape="http://www.inkscape.org/namespaces/inkscape"
   id="svg1"
   sodipodi:docname="vimb2.svg"
   viewBox="0 0 60 60"
   sodipodi:version="0.32"
   _SVGFile__filename="oldscale/apps/012_html_document.svg"
   version="1.0"
   y="0"
   x="0"
   inkscape:version="0.92+devel unknown"
   width="64"
   height="64">
  <defs
     id="defs18" />
  <sodipodi:namedview
     id="base"
     bordercolor="#666666"
     inkscape:pageshadow="2"
     inkscape:window-y="440"
     pagecolor="#ffffff"
     inkscape:window-height="1454"
     inkscape:zoom="9.6011824"
     inkscape:window-x="1920"
     borderopacity="1.0"
     inkscape:current-layer="svg1"
     inkscape:cx="43.874821"
     inkscape:cy="12.103641"
     inkscape:window-width="1080"
     inkscape:pageopacity="0.0"
     inkscape:document-rotation="0"
     showgrid="false"
     inkscape:window-maximized="0" />
  <path
     inkscape:connector-curvature="0"
     d="m 47.795002,30.090688 c 0,10.508679 -8.465181,19.034528 -18.899081,19.034528 -10.430761,0 -18.8959412,-8.525849 -18.8959412,-19.034528 0,-10.504883 8.4651802,-19.031681 18.8959412,-19.031681 10.4339,0 18.899081,8.526798 18.899081,19.031681 z"
     style="fill:#ffffff;fill-rule:evenodd;stroke:#000000;stroke-width:1.40625;stroke-linejoin:round;stroke-miterlimit:4;stroke-dasharray:none"
     id="path640" />
  <g
     id="g4302"
     style="stroke-width:1.40625;stroke-miterlimit:4;stroke-dasharray:none">
    <path
       id="path593"
       style="fill:none;stroke:#000000;stroke-width:1.40625;stroke-linecap:butt;stroke-linejoin:round;stroke-miterlimit:4;stroke-dasharray:none"
       d="m 38.62642,46.417901 0.62994,-2.565687 3.849435,-6.203612 -2.029753,0.986899 -3.989368,-4.511478 0.699872,-0.281942 3.639501,3.383574 3.289496,-4.934425 -0.979877,-0.352444 -0.909806,1.057402 -1.399813,-1.550851 0.629871,-0.422947 1.889751,0.563952 2.309689,-1.762289 h 1.60961 m -12.415712,-17.622897 -1.932358,0.705027 2.589624,3.101563 -2.729626,3.313002 -0.840149,-0.704333 0.980151,-0.775738 -2.589417,-0.705026 -3.289427,4.229467 1.189398,0.211439 0.419868,1.550781 1.190085,-1.620799 -0.209934,-1.269325 0.769529,-1.480071 h 0.630491 l -0.840425,1.621492 0.629803,0.845755 -0.06952,1.76222 -4.059645,1.127904 -2.589417,1.621493 0.490076,2.114595 -2.519898,-0.282011 -0.419869,1.550851 -0.490075,0.986829 0.839736,0.49345 0.419868,0.28201 1.470228,0.07043 1.04967,-1.973729 h 0.559595 l 0.420557,-0.634454 1.889407,-0.634386 1.890096,2.537681 0.699321,-0.704888 -1.74968,-2.114734 h 0.70001 l 2.659624,3.595012 0.769942,-2.044231 1.049878,-0.141005 0.279935,-2.396675 3.499499,0.704888 -0.07,0.845894 -3.989437,1.480348 0.489938,1.198337 2.799626,-0.563952 -0.07,2.608253 -1.959683,0.704888 -2.939422,-0.49345 -0.490076,0.845894 -3.289427,-0.916396 -0.07021,-1.621285 -7.208656,0.845894 -0.350349,1.550782 -2.51921,1.55085 -0.560283,3.383574 2.729832,3.947873 5.878844,0.915772 1.749681,0.705027 -0.279454,1.198615 1.469539,1.268632 0.280142,0.705027 -0.839737,0.845755 2.029134,0.845754"
       inkscape:connector-curvature="0" />
    <path
       id="path594"
       style="fill:none;stroke:#000000;stroke-width:1.40625;stroke-linecap:round;stroke-linejoin:round;stroke-miterlimit:4;stroke-dasharray:none"
       d="m 12.730252,20.236936 1.889407,-0.704333 v -0.705027 h 0.490076 v 0.705027 l 0.980152,-0.07071 2.799351,-4.300178 -3.219219,1.339343 v -0.07071"
       inkscape:connector-curvature="0" />
    <path
       id="path595"
       style="fill:none;stroke:#000000;stroke-width:1.40625;stroke-linecap:round;stroke-linejoin:round;stroke-miterlimit:4;stroke-dasharray:none"
       d="m 19.028965,18.19326 2.869559,-1.198615 2.590105,-0.352167 2.799351,-2.960835 -3.219219,-0.422877 -2.170237,2.396536 z"
       inkscape:connector-curvature="0" />
    <path
       id="path597"
       style="fill:none;stroke:#000000;stroke-width:1.40625;stroke-linecap:round;stroke-linejoin:round;stroke-miterlimit:4;stroke-dasharray:none"
       d="m 24.418422,24.748553 1.819888,-0.493588 -0.909944,-1.69151 0.490075,-0.422877 -0.560283,-0.564299 z"
       inkscape:connector-curvature="0" />
    <path
       id="path598"
       style="fill:none;stroke:#000000;stroke-width:1.40625;stroke-linecap:round;stroke-linejoin:round;stroke-miterlimit:4;stroke-dasharray:none"
       d="m 24.13828,23.902798 0.209934,-1.127904 -1.189397,0.775738 z"
       inkscape:connector-curvature="0" />
  </g>
  <metadata
     id="metadata15">
    <rdf:RDF>
      <cc:Work>
        <dc:format>image/svg+xml</dc:format>
        <dc:type
           rdf:resource="http://purl.org/dc/dcmitype/StillImage" />
        <cc:license
           rdf:resource="http://creativecommons.org/licenses/publicdomain/" />
        <dc:publisher>
          <cc:Agent
             rdf:about="http://openclipart.org/">
            <dc:title>Openclipart</dc:title>
          </cc:Agent>
        </dc:publisher>
        <dc:title></dc:title>
      </cc:Work>
      <cc:License
         rdf:about="http://creativecommons.org/licenses/publicdomain/">
        <cc:permits
           rdf:resource="http://creativecommons.org/ns#Reproduction" />
        <cc:permits
           rdf:resource="http://creativecommons.org/ns#Distribution" />
        <cc:permits
           rdf:resource="http://creativecommons.org/ns#DerivativeWorks" />
      </cc:License>
    </rdf:RDF>
  </metadata>
  <g
     id="g4289"
     transform="matrix(1.1005313,0,0,1.1005313,-4.8121703,-1.9764702)">
    <text
       transform="skewX(-11.860825)"
       id="text4279"
       y="43.06572"
       x="19.268625"
       style="font-style:italic;font-variant:normal;font-weight:bold;font-stretch:normal;font-size:40.83476257px;line-height:1.25;font-family:'URW Bookman L';-inkscape-font-specification:'URW Bookman L Bold Italic';letter-spacing:0px;word-spacing:0px;fill:#ffffff;stroke:#000000;stroke-width:1.875;stroke-miterlimit:4;stroke-dasharray:none"
       xml:space="preserve"><tspan
         style="font-style:italic;font-variant:normal;font-weight:bold;font-stretch:normal;font-family:'URW Bookman L';-inkscape-font-specification:'URW Bookman L Bold Italic';fill:#ffffff;stroke:#000000;stroke-width:1.875;stroke-miterlimit:4;stroke-dasharray:none"
         y="43.06572"
         x="19.268625"
         id="tspan4277"
         sodipodi:role="line">V</tspan></text>
    <text
       id="text4283"
       y="39.668335"
       x="6.65973"
       style="font-size:37.5px;line-height:1.25;font-family:'URW Bookman L';-inkscape-font-specification:'URW Bookman L';letter-spacing:0px;word-spacing:0px;fill:#ffffff;stroke:#000000;stroke-width:1.875;stroke-miterlimit:4;stroke-dasharray:none"
       xml:space="preserve"><tspan
         style="font-style:normal;font-variant:normal;font-weight:bold;font-stretch:normal;font-family:'URW Bookman L';-inkscape-font-specification:'URW Bookman L Bold';fill:#ffffff;stroke:#000000;stroke-width:1.875;stroke-miterlimit:4;stroke-dasharray:none"
         y="39.668335"
         x="6.65973"
         id="tspan4281"
         sodipodi:role="line">:</tspan></text>
  </g>
</svg>
